HIERARCHY
ROOT mixamorig:Hips
{
	OFFSET 0.000000 201.639420 0.000000
	CHANNELS 6 Xposition Yposition Zposition Xrotation Yrotation Zrotation
	JOINT mixamorig:Spine
	{
		OFFSET 0.006200 19.524994 -2.481800
		CHANNELS 3 Xrotation Yrotation Zrotation
		JOINT mixamorig:Spine1
		{
			OFFSET -0.000900 22.835007 -2.825400
			CHANNELS 3 Xrotation Yrotation Zrotation
			JOINT mixamorig:Spine2
			{
				OFFSET -0.020600 26.552490 -3.193300
				CHANNELS 3 Xrotation Yrotation Zrotation
				JOINT mixamorig:Neck
				{
					OFFSET -0.060000 30.701813 1.352200
					CHANNELS 3 Xrotation Yrotation Zrotation
					JOINT mixamorig:Head
					{
						OFFSET -0.087200 22.547607 3.670900
						CHANNELS 3 Xrotation Yrotation Zrotation
						JOINT mixamorig:HeadTop_End
						{
							OFFSET -0.830600 40.355194 7.893500
							CHANNELS 3 Xrotation Yrotation Zrotation
							End Site
							{
								OFFSET 0.000000 30.592346 0.000000
							}
						}
						JOINT mixamorig:RightEye
						{
							OFFSET -6.302100 18.118591 16.197100
							CHANNELS 3 Xrotation Yrotation Zrotation
							End Site
							{
								OFFSET 0.000000 30.592346 0.000000
							}
						}
						JOINT mixamorig:LeftEye
						{
							OFFSET 6.741500 18.382690 16.401899
							CHANNELS 3 Xrotation Yrotation Zrotation
							End Site
							{
								OFFSET 0.000000 30.592346 0.000000
							}
						}
					}
				}
				JOINT mixamorig:LeftShoulder
				{
					OFFSET 11.924900 18.230499 1.425400
					CHANNELS 3 Xrotation Yrotation Zrotation
					JOINT mixamorig:LeftArm
					{
						OFFSET 25.435989 -0.697632 -5.229300
						CHANNELS 3 Xrotation Yrotation Zrotation
						JOINT mixamorig:LeftForeArm
						{
							OFFSET 54.684776 0.000000 0.000000
							CHANNELS 3 Xrotation Yrotation Zrotation
							JOINT mixamorig:LeftHand
							{
								OFFSET 55.098175 0.000000 0.000000
								CHANNELS 3 Xrotation Yrotation Zrotation
								JOINT mixamorig:LeftHandMiddle1
								{
									OFFSET 23.369751 0.000000 0.000000
									CHANNELS 3 Xrotation Yrotation Zrotation
									JOINT mixamorig:LeftHandMiddle2
									{
										OFFSET 6.378677 0.000000 0.000000
										CHANNELS 3 Xrotation Yrotation Zrotation
										JOINT mixamorig:LeftHandMiddle3
										{
											OFFSET 6.148331 0.000000 0.000000
											CHANNELS 3 Xrotation Yrotation Zrotation
											JOINT mixamorig:LeftHandMiddle4
											{
												OFFSET 6.582504 0.000000 0.000000
												CHANNELS 3 Xrotation Yrotation Zrotation
												End Site
												{
													OFFSET -1.168900 6.395691 1.028606
												}
											}
										}
									}
								}
								JOINT mixamorig:LeftHandThumb1
								{
									OFFSET 7.235672 -3.848206 5.434273
									CHANNELS 3 Xrotation Yrotation Zrotation
									JOINT mixamorig:LeftHandThumb2
									{
										OFFSET 6.568451 -3.792297 3.792300
										CHANNELS 3 Xrotation Yrotation Zrotation
										JOINT mixamorig:LeftHandThumb3
										{
											OFFSET 6.063080 -3.500519 3.500518
											CHANNELS 3 Xrotation Yrotation Zrotation
											JOINT mixamorig:LeftHandThumb4
											{
												OFFSET 4.793182 -2.767334 2.767349
												CHANNELS 3 Xrotation Yrotation Zrotation
												End Site
												{
													OFFSET 0.101639 6.054260 1.275483
												}
											}
										}
									}
								}
								JOINT mixamorig:LeftHandIndex1
								{
									OFFSET 23.101074 -0.309540 4.992809
									CHANNELS 3 Xrotation Yrotation Zrotation
									JOINT mixamorig:LeftHandIndex2
									{
										OFFSET 6.226883 0.000000 0.000000
										CHANNELS 3 Xrotation Yrotation Zrotation
										JOINT mixamorig:LeftHandIndex3
										{
											OFFSET 6.094330 0.000000 0.000000
											CHANNELS 3 Xrotation Yrotation Zrotation
											JOINT mixamorig:LeftHandIndex4
											{
												OFFSET 5.482605 0.000000 0.000000
												CHANNELS 3 Xrotation Yrotation Zrotation
												End Site
												{
													OFFSET -1.427902 5.233032 0.797164
												}
											}
										}
									}
								}
								JOINT mixamorig:LeftHandRing1
								{
									OFFSET 22.299240 0.021149 -3.964172
									CHANNELS 3 Xrotation Yrotation Zrotation
									JOINT mixamorig:LeftHandRing2
									{
										OFFSET 6.321869 0.000000 0.000000
										CHANNELS 3 Xrotation Yrotation Zrotation
										JOINT mixamorig:LeftHandRing3
										{
											OFFSET 5.899796 0.000000 0.000000
											CHANNELS 3 Xrotation Yrotation Zrotation
											JOINT mixamorig:LeftHandRing4
											{
												OFFSET 6.517899 0.000000 0.000000
												CHANNELS 3 Xrotation Yrotation Zrotation
												End Site
												{
													OFFSET -1.637299 6.232208 0.980890
												}
											}
										}
									}
								}
								JOINT mixamorig:LeftHandPinky1
								{
									OFFSET 20.463791 -0.302338 -8.562233
									CHANNELS 3 Xrotation Yrotation Zrotation
									JOINT mixamorig:LeftHandPinky2
									{
										OFFSET 6.908646 0.000000 0.000000
										CHANNELS 3 Xrotation Yrotation Zrotation
										JOINT mixamorig:LeftHandPinky3
										{
											OFFSET 4.622849 0.000000 0.000000
											CHANNELS 3 Xrotation Yrotation Zrotation
											JOINT mixamorig:LeftHandPinky4
											{
												OFFSET 5.216080 0.000000 0.000000
												CHANNELS 3 Xrotation Yrotation Zrotation
												End Site
												{
													OFFSET -0.606308 5.116241 0.814926
												}
											}
										}
									}
								}
							}
						}
					}
				}
				JOINT mixamorig:RightShoulder
				{
					OFFSET -12.001300 18.284088 1.348900
					CHANNELS 3 Xrotation Yrotation Zrotation
					JOINT mixamorig:RightArm
					{
						OFFSET -25.308500 -0.751312 -5.164599
						CHANNELS 3 Xrotation Yrotation Zrotation
						JOINT mixamorig:RightForeArm
						{
							OFFSET -54.684429 0.000000 0.000000
							CHANNELS 3 Xrotation Yrotation Zrotation
							JOINT mixamorig:RightHand
							{
								OFFSET -55.150291 0.000000 0.000000
								CHANNELS 3 Xrotation Yrotation Zrotation
								JOINT mixamorig:RightHandMiddle1
								{
									OFFSET -23.317566 0.000000 0.000000
									CHANNELS 3 Xrotation Yrotation Zrotation
									JOINT mixamorig:RightHandMiddle2
									{
										OFFSET -6.378403 0.000000 0.000000
										CHANNELS 3 Xrotation Yrotation Zrotation
										JOINT mixamorig:RightHandMiddle3
										{
											OFFSET -6.148193 0.000000 0.000000
											CHANNELS 3 Xrotation Yrotation Zrotation
											JOINT mixamorig:RightHandMiddle4
											{
												OFFSET -6.583389 0.000000 0.000000
												CHANNELS 3 Xrotation Yrotation Zrotation
												End Site
												{
													OFFSET 1.171692 6.395905 1.029786
												}
											}
										}
									}
								}
								JOINT mixamorig:RightHandThumb1
								{
									OFFSET -7.190521 -3.860474 5.435846
									CHANNELS 3 Xrotation Yrotation Zrotation
									JOINT mixamorig:RightHandThumb2
									{
										OFFSET -6.567429 -3.791718 3.791708
										CHANNELS 3 Xrotation Yrotation Zrotation
										JOINT mixamorig:RightHandThumb3
										{
											OFFSET -6.062469 -3.500153 3.500166
											CHANNELS 3 Xrotation Yrotation Zrotation
											JOINT mixamorig:RightHandThumb4
											{
												OFFSET -4.792618 -2.767029 2.767022
												CHANNELS 3 Xrotation Yrotation Zrotation
												End Site
												{
													OFFSET -0.100327 6.053253 1.276754
												}
											}
										}
									}
								}
								JOINT mixamorig:RightHandIndex1
								{
									OFFSET -23.048981 -0.310791 4.992554
									CHANNELS 3 Xrotation Yrotation Zrotation
									JOINT mixamorig:RightHandIndex2
									{
										OFFSET -6.227539 0.000000 0.000000
										CHANNELS 3 Xrotation Yrotation Zrotation
										JOINT mixamorig:RightHandIndex3
										{
											OFFSET -6.095047 0.000000 0.000000
											CHANNELS 3 Xrotation Yrotation Zrotation
											JOINT mixamorig:RightHandIndex4
											{
												OFFSET -5.484772 0.000000 0.000000
												CHANNELS 3 Xrotation Yrotation Zrotation
												End Site
												{
													OFFSET 1.420593 5.237305 0.797056
												}
											}
										}
									}
								}
								JOINT mixamorig:RightHandRing1
								{
									OFFSET -22.246323 0.020569 -3.963762
									CHANNELS 3 Xrotation Yrotation Zrotation
									JOINT mixamorig:RightHandRing2
									{
										OFFSET -6.322128 0.000000 0.000000
										CHANNELS 3 Xrotation Yrotation Zrotation
										JOINT mixamorig:RightHandRing3
										{
											OFFSET -5.900024 0.000000 0.000000
											CHANNELS 3 Xrotation Yrotation Zrotation
											JOINT mixamorig:RightHandRing4
											{
												OFFSET -6.518356 0.000000 0.000000
												CHANNELS 3 Xrotation Yrotation Zrotation
												End Site
												{
													OFFSET 1.636398 6.232697 0.982186
												}
											}
										}
									}
								}
								JOINT mixamorig:RightHandPinky1
								{
									OFFSET -20.411011 -0.303314 -8.561701
									CHANNELS 3 Xrotation Yrotation Zrotation
									JOINT mixamorig:RightHandPinky2
									{
										OFFSET -6.907349 0.000000 0.000000
										CHANNELS 3 Xrotation Yrotation Zrotation
										JOINT mixamorig:RightHandPinky3
										{
											OFFSET -4.623840 0.000000 0.000000
											CHANNELS 3 Xrotation Yrotation Zrotation
											JOINT mixamorig:RightHandPinky4
											{
												OFFSET -5.218353 0.000000 0.000000
												CHANNELS 3 Xrotation Yrotation Zrotation
												End Site
												{
													OFFSET 0.602097 5.118835 0.816273
												}
											}
										}
									}
								}
							}
						}
					}
				}
			}
		}
	}
	JOINT mixamorig:LeftUpLeg
	{
		OFFSET 18.168400 -13.561905 -0.039000
		CHANNELS 3 Xrotation Yrotation Zrotation
		JOINT mixamorig:LeftLeg
		{
			OFFSET 0.577358 -80.825211 -3.695000
			CHANNELS 3 Xrotation Yrotation Zrotation
			JOINT mixamorig:LeftFoot
			{
				OFFSET -0.577356 -83.370262 -6.520700
				CHANNELS 3 Xrotation Yrotation Zrotation
				JOINT mixamorig:LeftToeBase
				{
					OFFSET 0.750401 -20.798306 25.135401
					CHANNELS 3 Xrotation Yrotation Zrotation
					JOINT mixamorig:LeftToe_End
					{
						OFFSET -0.000500 0.001200 19.917799
						CHANNELS 3 Xrotation Yrotation Zrotation
						End Site
						{
							OFFSET 0.000000 19.917805 0.000000
						}
					}
				}
			}
		}
	}
	JOINT mixamorig:RightUpLeg
	{
		OFFSET -18.162500 -13.585098 -0.041000
		CHANNELS 3 Xrotation Yrotation Zrotation
		JOINT mixamorig:RightLeg
		{
			OFFSET -0.595024 -80.945297 -3.631900
			CHANNELS 3 Xrotation Yrotation Zrotation
			JOINT mixamorig:RightFoot
			{
				OFFSET 0.595024 -83.218193 -6.561200
				CHANNELS 3 Xrotation Yrotation Zrotation
				JOINT mixamorig:RightToeBase
				{
					OFFSET -0.753601 -20.807106 25.115000
					CHANNELS 3 Xrotation Yrotation Zrotation
					JOINT mixamorig:RightToe_End
					{
						OFFSET 0.000299 0.001700 19.918200
						CHANNELS 3 Xrotation Yrotation Zrotation
						End Site
						{
							OFFSET 0.000000 19.918203 0.000000
						}
					}
				}
			}
		}
	}
}
MOTION
Frames: 5
Frame Time: 0.033333
7.365528 170.037750 32.049862 0.596733 -29.140852 -2.655328 11.936474 9.396383 -5.455306 2.716412 1.587282 -1.638124 2.739323 1.564703 -1.618239 -10.134503 9.235502 7.183227 -0.729665 7.065125 -0.755714 -0.000000 0.000000 0.000000 -0.000000 0.000000 0.000000 -0.000000 0.000000 0.000000 0.919220 1.389172 -6.167204 -59.306464 1.156392 -47.230222 0.000069 -109.254395 0.000072 1.883856 -8.065183 -14.635810 -0.461472 3.841597 -39.722683 6.450743 5.820339 -95.892871 2.182883 4.561561 -51.127736 0.000001 -0.000003 -0.000002 -6.141200 -11.690801 -6.761670 9.914079 42.595529 3.409868 -0.422803 8.108087 27.509097 0.000003 -0.000002 0.000002 0.255310 3.378224 -45.814324 5.654085 5.847749 -88.067462 2.162142 4.544813 -50.866369 0.000002 0.000000 0.000001 0.469733 4.966847 -39.799434 8.181046 5.368628 -113.502998 3.200488 5.218114 -63.022982 -0.000002 0.000002 0.000001 -3.762423 9.063704 -45.253814 5.342530 5.829000 -85.005311 8.716856 5.103341 -119.369181 0.000000 -0.000002 0.000001 2.584623 21.433192 -4.330166 -38.835540 17.049849 45.641704 0.000009 113.650058 -0.000009 -14.683705 10.263231 -8.615666 -0.761619 -2.932902 39.031078 5.133897 -4.632773 95.881663 1.739747 -3.631695 51.181367 0.000005 0.000000 -0.000000 -7.341109 13.749663 7.412328 9.855781 -44.489107 -3.903254 -0.115792 -14.513059 -28.973867 0.000003 -0.000001 0.000001 -0.124372 -2.384778 45.108878 4.500571 -4.654517 88.071184 1.723225 -3.618373 50.920119 0.000001 -0.000000 0.000004 0.154759 -4.068816 39.122668 6.509724 -4.273601 113.462850 2.549575 -4.153904 63.067344 -0.000000 0.000004 0.000002 -4.198875 -8.025505 44.637789 4.252912 -4.639634 85.014832 6.935956 -4.062620 119.322326 -0.000002 0.000000 0.000000 -47.275069 1.114492 19.497760 67.316610 1.140399 0.664351 -21.312415 -8.396229 -10.202805 0.023802 0.000016 -0.035700 0.000000 0.000000 0.000000 -16.969619 -14.613897 -28.302123 50.205114 -6.455455 -7.904872 -7.436863 -6.451403 20.345668 -12.958085 -0.298398 5.017362 -0.000000 -0.000000 -0.000000 
7.177412 169.271271 28.151730 -0.615528 -32.644992 -2.483499 12.006418 8.933626 -5.038312 2.734809 1.460474 -1.549756 2.757868 1.438925 -1.528999 -9.558235 9.970609 6.721686 0.126017 9.716102 -1.871108 -0.000002 0.000000 0.000000 -0.000002 0.000000 0.000000 -0.000002 0.000000 0.000000 0.884903 1.197731 -5.887103 -60.271365 2.218202 -46.750005 0.000214 -108.633742 0.000222 2.264085 -7.549981 -14.310789 -0.461475 3.841590 -39.722683 6.450741 5.820345 -95.892871 2.182886 4.561559 -51.127733 -0.000000 -0.000000 0.000001 -6.141205 -11.690806 -6.761669 9.914076 42.595529 3.409872 -0.422797 8.108090 27.509096 -0.000001 0.000002 -0.000001 0.255309 3.378223 -45.814324 5.654086 5.847744 -88.067462 2.162135 4.544813 -50.866372 -0.000001 -0.000000 -0.000001 0.469725 4.966841 -39.799434 8.181050 5.368626 -113.503004 3.200484 5.218115 -63.022989 -0.000000 -0.000001 -0.000000 -3.762425 9.063699 -45.253818 5.342533 5.829004 -85.005311 8.716857 5.103344 -119.369181 -0.000002 0.000001 0.000001 2.566025 21.076278 -4.184268 -40.726345 17.972874 49.337120 0.000079 112.337426 -0.000076 -15.628251 11.229335 -9.475647 -0.761619 -2.932897 39.031078 5.133896 -4.632770 95.881663 1.739748 -3.631697 51.181370 0.000000 0.000003 -0.000001 -7.341107 13.749670 7.412321 9.855787 -44.489107 -3.903266 -0.115791 -14.513063 -28.973864 -0.000002 -0.000002 -0.000001 -0.124371 -2.384771 45.108871 4.500569 -4.654514 88.071184 1.723225 -3.618373 50.920119 0.000001 0.000001 -0.000000 0.154759 -4.068811 39.122668 6.509726 -4.273602 113.462850 2.549575 -4.153902 63.067337 0.000001 -0.000001 0.000001 -4.198875 -8.025498 44.637786 4.252917 -4.639634 85.014832 6.935957 -4.062618 119.322326 -0.000003 0.000000 0.000001 -46.482350 1.445595 21.146575 67.263764 2.260039 -0.261788 -20.424342 -8.024374 -10.902727 0.024836 0.000006 -0.037369 -0.000000 -0.000002 -0.000000 -18.551878 -13.457336 -28.905965 52.565846 -7.269873 -6.924530 -10.495276 -10.749904 22.253615 -9.428455 -0.018576 1.280447 -0.000000 0.000000 0.000000 
6.662603 168.601837 23.770704 -1.571772 -35.385499 -2.075107 11.991965 8.437157 -4.695203 2.728681 1.329311 -1.483202 2.750810 1.309812 -1.461315 -8.693704 10.570380 6.162460 0.886075 11.795857 -2.822287 -0.000000 -0.000000 -0.000000 -0.000000 -0.000000 -0.000000 -0.000000 -0.000000 -0.000000 0.747176 1.444873 -5.665804 -60.692187 3.208705 -46.757187 0.000029 -107.745626 0.000021 2.379291 -8.035340 -15.055252 -0.461466 3.841595 -39.722683 6.450744 5.820341 -95.892871 2.182880 4.561561 -51.127740 -0.000003 0.000000 0.000003 -6.141200 -11.690807 -6.761670 9.914081 42.595529 3.409872 -0.422798 8.108088 27.509096 -0.000002 -0.000001 -0.000002 0.255315 3.378221 -45.814327 5.654082 5.847748 -88.067462 2.162138 4.544810 -50.866369 0.000000 0.000000 -0.000003 0.469731 4.966842 -39.799437 8.181047 5.368628 -113.502998 3.200491 5.218121 -63.022989 0.000000 0.000000 0.000001 -3.762420 9.063702 -45.253818 5.342530 5.829002 -85.005311 8.716859 5.103343 -119.369181 -0.000001 0.000000 -0.000000 2.516628 20.485764 -4.008082 -42.820744 18.914495 53.131703 0.000013 111.163139 0.000010 -15.466038 11.885380 -9.406259 -0.761623 -2.932902 39.031078 5.133898 -4.632768 95.881663 1.739747 -3.631693 51.181367 0.000001 -0.000002 0.000000 -7.341108 13.749661 7.412319 9.855788 -44.489100 -3.903255 -0.115791 -14.513059 -28.973867 -0.000004 0.000002 -0.000002 -0.124372 -2.384774 45.108878 4.500570 -4.654516 88.071184 1.723224 -3.618375 50.920119 0.000003 -0.000002 -0.000001 0.154760 -4.068815 39.122664 6.509724 -4.273604 113.462850 2.549575 -4.153905 63.067337 0.000003 0.000001 0.000004 -4.198880 -8.025501 44.637783 4.252915 -4.639631 85.014832 6.935956 -4.062615 119.322326 0.000001 -0.000000 0.000001 -45.988552 1.794612 22.493160 66.786280 3.092195 -1.026115 -19.050011 -7.822171 -11.366012 0.011776 0.000006 -0.017822 -0.000000 0.000001 -0.000000 -19.818098 -12.473384 -28.635232 54.035133 -8.049608 -7.017042 -14.416984 -14.053121 23.490472 -5.974899 -0.000013 0.000005 -0.000001 0.000001 -0.000000 
5.984695 168.190216 18.986229 -2.338656 -37.330245 -1.600169 11.985547 7.875293 -4.179333 2.725963 1.180249 -1.381891 2.747220 1.163194 -1.359554 -7.591958 11.101429 5.446684 1.528545 13.741043 -3.984320 0.000000 -0.000000 0.000000 0.000000 -0.000000 0.000000 0.000000 -0.000000 0.000000 0.712610 1.721397 -5.799676 -60.698860 4.146894 -46.984591 0.000060 -107.171679 0.000049 1.997362 -8.291570 -15.574197 -0.461472 3.841590 -39.722679 6.450741 5.820343 -95.892871 2.182879 4.561560 -51.127736 -0.000001 -0.000003 0.000003 -6.141199 -11.690810 -6.761666 9.914079 42.595529 3.409879 -0.422801 8.108088 27.509097 0.000004 0.000003 -0.000001 0.255310 3.378216 -45.814324 5.654084 5.847744 -88.067462 2.162142 4.544810 -50.866365 0.000001 0.000001 -0.000000 0.469729 4.966837 -39.799434 8.181051 5.368622 -113.503004 3.200489 5.218116 -63.022989 -0.000001 0.000002 0.000000 -3.762423 9.063698 -45.253814 5.342533 5.828998 -85.005311 8.716855 5.103347 -119.369181 0.000002 0.000001 0.000001 2.517796 20.095643 -4.106045 -44.980098 19.531133 56.620154 0.000073 110.243160 -0.000091 -14.888533 12.216801 -9.435157 -0.761622 -2.932903 39.031078 5.133898 -4.632774 95.881670 1.739748 -3.631696 51.181367 0.000001 0.000000 0.000001 -7.341110 13.749663 7.412325 9.855784 -44.489110 -3.903255 -0.115794 -14.513057 -28.973871 -0.000001 -0.000001 0.000003 -0.124375 -2.384776 45.108874 4.500570 -4.654517 88.071184 1.723231 -3.618373 50.920116 0.000001 -0.000001 -0.000002 0.154757 -4.068815 39.122668 6.509729 -4.273603 113.462857 2.549579 -4.153903 63.067337 -0.000000 0.000003 0.000002 -4.198880 -8.025501 44.637789 4.252915 -4.639634 85.014832 6.935956 -4.062617 119.322326 -0.000002 0.000001 -0.000000 -45.661375 2.067460 23.523998 65.709104 3.734823 -1.574294 -17.136950 -7.808900 -11.618769 0.000587 -0.000014 -0.001061 -0.000000 -0.000000 0.000000 -21.607196 -11.776781 -29.236078 55.749807 -8.760203 -6.673284 -18.389053 -13.058380 23.024448 -2.727517 0.000031 0.000005 -0.000000 -0.000000 -0.000001 
5.250205 168.342331 14.223227 -3.046397 -38.191450 -1.524655 12.026801 7.196526 -2.973329 2.748486 0.991275 -1.136740 2.769298 0.978418 -1.114909 -6.382527 11.620403 4.168531 2.474366 15.185034 -4.998008 -0.000001 -0.000000 0.000000 -0.000001 -0.000000 0.000000 -0.000001 -0.000000 0.000000 0.824095 1.852612 -6.268599 -59.945524 5.301395 -47.538557 0.000115 -107.051911 0.000116 1.973753 -8.161438 -15.698032 -0.461471 3.841590 -39.722683 6.450742 5.820344 -95.892871 2.182883 4.561559 -51.127733 0.000001 0.000001 -0.000000 -6.141199 -11.690805 -6.761667 9.914077 42.595529 3.409869 -0.422797 8.108092 27.509091 0.000004 -0.000003 -0.000000 0.255312 3.378221 -45.814327 5.654086 5.847745 -88.067462 2.162138 4.544814 -50.866369 -0.000000 0.000003 -0.000001 0.469729 4.966838 -39.799434 8.181049 5.368628 -113.503004 3.200488 5.218120 -63.022989 -0.000000 -0.000001 -0.000001 -3.762420 9.063698 -45.253818 5.342531 5.829002 -85.005311 8.716861 5.103342 -119.369181 -0.000001 -0.000002 0.000001 2.547852 19.586894 -4.828029 -46.670283 19.934667 59.917677 -0.000004 109.590296 0.000011 -14.548610 12.291685 -9.380194 -0.761623 -2.932903 39.031075 5.133896 -4.632771 95.881663 1.739750 -3.631700 51.181374 0.000001 -0.000002 0.000001 -7.341110 13.749662 7.412322 9.855785 -44.489110 -3.903261 -0.115789 -14.513061 -28.973867 0.000000 0.000001 0.000001 -0.124374 -2.384775 45.108874 4.500570 -4.654514 88.071178 1.723224 -3.618371 50.920112 -0.000000 -0.000001 0.000000 0.154759 -4.068815 39.122664 6.509726 -4.273602 113.462850 2.549575 -4.153903 63.067344 -0.000004 -0.000001 0.000003 -4.198881 -8.025506 44.637786 4.252914 -4.639635 85.014832 6.935956 -4.062622 119.322326 -0.000003 0.000001 0.000001 -45.390712 2.128688 24.391364 63.930181 4.197728 -1.838995 -14.402246 -8.014155 -11.811275 -0.491039 -0.000003 0.000004 0.000000 -0.000000 0.000000 -23.085310 -11.820568 -29.880592 57.050723 -9.514290 -6.115240 -20.674805 -10.414333 23.004743 -1.611296 -0.000006 0.000004 -0.000000 0.000000 -0.000001 
